<?xml version="1.0" standalone="no"?>
<!DOCTYPE svg PUBLIC "-//W3C//DTD SVG 20010904//EN"
 "http://www.w3.org/TR/2001/REC-SVG-20010904/DTD/svg10.dtd">
<svg version="1.0" xmlns="http://www.w3.org/2000/svg"
 width="162.000000pt" height="162.000000pt" viewBox="0 0 162.000000 162.000000"
 preserveAspectRatio="xMidYMid meet">
<metadata>
Created by potrace 1.16, written by Peter Selinger 2001-2019
</metadata><g><rect x="0" y="0" width="162" height="162" fill="#ffffff" />
<g transform="translate(0.000000,162.000000) scale(0.050000,-0.050000)"
fill="#000000" stroke="none">
<path d="M360 2460 l0 -420 420 0 420 0 0 420 0 420 -420 0 -420 0 0 -420z
m720 0 l0 -300 -300 0 -300 0 0 300 0 300 300 0 300 0 0 -300z"/>
<path d="M600 2460 l0 -180 180 0 180 0 0 180 0 180 -180 0 -180 0 0 -180z"/>
<path d="M1320 2820 l0 -60 60 0 60 0 0 -180 0 -180 60 0 60 0 0 -60 0 -60 60
0 60 0 0 -60 0 -60 -60 0 -60 0 0 -60 0 -60 -60 0 -60 0 0 60 0 60 -60 0 -60
0 0 -120 0 -120 60 0 60 0 0 -60 0 -60 -120 0 -120 0 0 60 0 60 -60 0 -60 0 0
-60 0 -60 -60 0 -60 0 0 60 0 60 -120 0 -120 0 0 -60 0 -60 60 0 60 0 0 -60 0
-60 60 0 60 0 0 -60 0 -60 -60 0 -60 0 0 -60 0 -60 120 0 120 0 0 -60 0 -60
60 0 60 0 0 60 0 60 60 0 60 0 0 60 0 60 60 0 60 0 0 60 0 60 60 0 60 0 0 -60
0 -60 60 0 60 0 0 -60 0 -60 60 0 60 0 0 60 0 60 -60 0 -60 0 0 60 0 60 -60 0
-60 0 0 60 0 60 60 0 60 0 0 60 0 60 60 0 60 0 0 -120 0 -120 60 0 60 0 0 -60
0 -60 120 0 120 0 0 180 0 180 -60 0 -60 0 0 -120 0 -120 -60 0 -60 0 0 360 0
360 -60 0 -60 0 0 60 0 60 -60 0 -60 0 0 60 0 60 60 0 60 0 0 60 0 60 60 0 60
0 0 60 0 60 -300 0 -300 0 0 -60z m360 -120 l0 -60 -60 0 -60 0 0 60 0 60 60
0 60 0 0 -60z m120 -360 l0 -60 -60 0 -60 0 0 60 0 60 60 0 60 0 0 -60z m0
-240 l0 -60 -60 0 -60 0 0 60 0 60 60 0 60 0 0 -60z m-600 -360 l0 -60 60 0
60 0 0 -60 0 -60 -60 0 -60 0 0 -60 0 -60 -60 0 -60 0 0 60 0 60 60 0 60 0 0
60 0 60 -60 0 -60 0 0 60 0 60 60 0 60 0 0 -60z"/>
<path d="M2040 2460 l0 -420 420 0 420 0 0 420 0 420 -420 0 -420 0 0 -420z
m720 0 l0 -300 -300 0 -300 0 0 300 0 300 300 0 300 0 0 -300z"/>
<path d="M2280 2460 l0 -180 180 0 180 0 0 180 0 180 -180 0 -180 0 0 -180z"/>
<path d="M360 1860 l0 -60 60 0 60 0 0 -60 0 -60 -60 0 -60 0 0 -120 0 -120
60 0 60 0 0 -60 0 -60 60 0 60 0 0 60 0 60 60 0 60 0 0 60 0 60 -60 0 -60 0 0
-60 0 -60 -60 0 -60 0 0 120 0 120 60 0 60 0 0 120 0 120 -120 0 -120 0 0 -60z"/>
<path d="M2760 1860 l0 -60 -120 0 -120 0 0 -60 0 -60 -60 0 -60 0 0 60 0 60
-60 0 -60 0 0 -120 0 -120 120 0 120 0 0 -60 0 -60 -60 0 -60 0 0 -60 0 -60
60 0 60 0 0 60 0 60 60 0 60 0 0 -60 0 -60 120 0 120 0 0 180 0 180 -60 0 -60
0 0 60 0 60 60 0 60 0 0 60 0 60 -60 0 -60 0 0 -60z"/>
<path d="M1440 1380 l0 -60 -60 0 -60 0 0 -60 0 -60 60 0 60 0 0 -120 0 -120
-60 0 -60 0 0 -120 0 -120 120 0 120 0 0 -60 0 -60 60 0 60 0 0 60 0 60 120 0
120 0 0 120 0 120 60 0 60 0 0 -60 0 -60 60 0 60 0 0 60 0 60 -60 0 -60 0 0
60 0 60 120 0 120 0 0 -120 0 -120 60 0 60 0 0 -60 0 -60 -60 0 -60 0 0 -60 0
-60 -60 0 -60 0 0 60 0 60 -60 0 -60 0 0 -60 0 -60 -60 0 -60 0 0 -60 0 -60
120 0 120 0 0 -60 0 -60 120 0 120 0 0 60 0 60 240 0 240 0 0 120 0 120 -120
0 -120 0 0 60 0 60 120 0 120 0 0 60 0 60 -120 0 -120 0 0 120 0 120 -360 0
-360 0 0 60 0 60 -120 0 -120 0 0 -60 0 -60 -120 0 -120 0 0 60 0 60 60 0 60
0 0 60 0 60 -60 0 -60 0 0 -60z m360 -240 l0 -60 -60 0 -60 0 0 60 0 60 60 0
60 0 0 -60z m-120 -300 l0 -120 -60 0 -60 0 0 120 0 120 60 0 60 0 0 -120z
m960 60 l0 -60 -120 0 -120 0 0 60 0 60 120 0 120 0 0 -60z m0 -240 l0 -60
-60 0 -60 0 0 60 0 60 60 0 60 0 0 -60z m-240 -120 l0 -60 -60 0 -60 0 0 60 0
60 60 0 60 0 0 -60z"/>
<path d="M2040 1380 l0 -60 60 0 60 0 0 60 0 60 -60 0 -60 0 0 -60z"/>
<path d="M360 780 l0 -420 420 0 420 0 0 420 0 420 -420 0 -420 0 0 -420z
m720 0 l0 -300 -300 0 -300 0 0 300 0 300 300 0 300 0 0 -300z"/>
<path d="M600 780 l0 -180 180 0 180 0 0 180 0 180 -180 0 -180 0 0 -180z"/>
<path d="M1320 480 l0 -120 240 0 240 0 0 60 0 60 -180 0 -180 0 0 60 0 60
-60 0 -60 0 0 -120z"/>
</g>
</g></svg>
